{"title":"Runner Runner 2013 CAM XViD UNiQUE","uid":9104057,"size":1478222162,"categoryP":"video","categoryS":"movies","magnet":"?xt=urn:btih:606e2545455a36053d7a25534f192ed7b38fdd3a&amp;dn=Runner+Runner+2013+CAM+XViD+UNiQUE&amp;tr=udp%3A%2F%2Ftracker.openbittorrent.com%3A80&amp;tr=udp%3A%2F%2Fopen.demonii.com%3A1337&amp;tr=udp%3A%2F%2Ftracker.coppersurfer.tk%3A6969&amp;tr=udp%3A%2F%2Fexodus.desync.com%3A6969","seeders":10,"leechers":1,"uploader":"xxxlavalxxx","files":-1,"time":1382825504,"description":"\n &lt;a href=&quot;\nhttp://www.imdb.com/title/tt2364841/&quot; rel=&quot;nofollow&quot; target=&quot;_NEW&quot;&gt;\nhttp://www.imdb.com/title/tt2364841/&lt;/a&gt;\n\n\n\nWhen a poor college student who cracks an online poker game goes bust, he arranges a face-to-face with the man he thinks cheated him, a sly offshore entrepreneur.\nPrinceton grad student Richie, believing he's been swindled, travels to Costa Rica to confront online gambling tycoon Ivan Block. Richie is seduced by Block's promise of immense wealth, until he learns the disturbing truth about his benefactor. When the FBI tries to coerce Richie to help bring down Block, Richie faces his biggest gamble ever: attempting to outmaneuver the two forces closing in on him.\n\nDirector: Brad Furman\nWriters: Brian Koppelman, David Levien\nStars: Ben Affleck, Justin Timberlake, Gemma Arterton \nGenres: Crime | Drama | Thriller\nCountry: USA\nLanguage: English\n\n\n\nFormat                                   : AVI\nFormat/Info                              : Audio Video Interleave\nFile size                                : 1.36 GiB\nDuration                                 : 1h 25mn\nOverall bit rate                         : 2 277 Kbps\nWriting application                      : VirtualDubMod 1.5.10.2 (build 2540/release)\nWriting library                          : VirtualDubMod build 2540/release\n\nVideo\nID                                       : 0\nFormat                                   : MPEG-4 Visual\nFormat profile                           : Advanced Simple@L5\nFormat settings, BVOP                    : 2\nFormat settings, QPel                    : No\nFormat settings, GMC                     : No warppoints\nFormat settings, Matrix                  : Default (H.263)\nMuxing mode                              : Packed bitstream\nCodec ID                                 : XVID\nCodec ID/Hint                            : XviD\nDuration                                 : 1h 25mn\nBit rate                                 : 2 137 Kbps\nWidth                                    : 720 pixels\nHeight                                   : 338 pixels\nDisplay aspect ratio                     : 2.130\nFrame rate                               : 29.970 fps\nColor space                              : YUV\nChroma subsampling                       : 4:2:0\nBit depth                                : 8 bits\nScan type                                : Progressive\nCompression mode                         : Lossy\nBits/(Pixel*Frame)                       : 0.293\nStream size                              : 1.28 GiB (94%)\nWriting library                          : XviD 64\n\nAudio\nID                                       : 1\nFormat                                   : MPEG Audio\nFormat version                           : Version 1\nFormat profile                           : Layer 3\nCodec ID                                 : 55\nCodec ID/Hint                            : MP3\nDuration                                 : 1h 25mn\nBit rate mode                            : Constant\nBit rate                                 : 128 Kbps\nChannel(s)                               : 2 channels\nSampling rate                            : 48.0 KHz\nCompression mode                         : Lossy\nStream size                              : 78.2 MiB (6%)\nAlignment                                : Aligned on interleaves\nInterleave, duration                     : 33 ms (1.00 video frame)\nInterleave, preload duration             : 504 ms\n\n\nSource Used  Patriots  - Thanks\n\n\n &lt;a href=&quot;\nhttp://i.imgur.com/jE46vUC.jpg&quot; rel=&quot;nofollow&quot; target=&quot;_NEW&quot;&gt;\nhttp://i.imgur.com/jE46vUC.jpg&lt;/a&gt; &lt;a href=&quot;\nhttp://i.imgur.com/HHR2BTx.jpg&quot; rel=&quot;nofollow&quot; target=&quot;_NEW&quot;&gt;\nhttp://i.imgur.com/HHR2BTx.jpg&lt;/a&gt; &lt;a href=&quot;\nhttp://i.imgur.com/gYSpeBe.jpg&quot; rel=&quot;nofollow&quot; target=&quot;_NEW&quot;&gt;\nhttp://i.imgur.com/gYSpeBe.jpg&lt;/a&gt; &lt;a href=&quot;\nhttp://i.imgur.com/E5P4SvY.jpg&quot; rel=&quot;nofollow&quot; target=&quot;_NEW&quot;&gt;\nhttp://i.imgur.com/E5P4SvY.jpg&lt;/a&gt;","torrent":{"xt":"urn:btih:606e2545455a36053d7a25534f192ed7b38fdd3a","amp;dn":"Runner+Runner+2013+CAM+XViD+UNiQUE","amp;tr":["udp%3A%2F%2Ftracker.openbittorrent.com%3A80","udp%3A%2F%2Fopen.demonii.com%3A1337","udp%3A%2F%2Ftracker.coppersurfer.tk%3A6969","udp%3A%2F%2Fexodus.desync.com%3A6969"],"infoHash":"606e2545455a36053d7a25534f192ed7b38fdd3a","infoHashBuffer":{"type":"Buffer","data":[96,110,37,69,69,90,54,5,61,122,37,83,79,25,46,215,179,143,221,58]},"announce":[],"urlList":[]}}